 <svg width="40" height="39" viewBox="0 0 40 39" fill="none" xmlns="http://www.w3.org/2000/svg">
<g filter="url(#filter0_d_13_902)">
<circle cx="20" cy="16.4273" r="15.8062" fill="url(#paint0_linear_13_902)"/>
</g>
<g clip-path="url(#clip0_13_902)">
<path d="M26.7379 20.2774C26.7379 20.5327 26.6365 20.7775 26.456 20.958C26.2754 21.1385 26.0306 21.24 25.7753 21.24H14.2247C13.9694 21.24 13.7246 21.1385 13.544 20.958C13.3635 20.7775 13.2621 20.5327 13.2621 20.2774V14.5021C13.2621 14.2468 13.3635 14.002 13.544 13.8214C13.7246 13.6409 13.9694 13.5395 14.2247 13.5395H15.3528C16.1182 13.5391 16.8522 13.2348 17.3934 12.6934L18.1923 11.8964C18.3723 11.7164 18.6163 11.615 18.8709 11.6144H21.1272C21.3824 11.6145 21.6272 11.7159 21.8077 11.8964L22.6047 12.6934C22.8729 12.9617 23.1913 13.1745 23.5418 13.3197C23.8922 13.4649 24.2679 13.5396 24.6472 13.5395H25.7753C26.0306 13.5395 26.2754 13.6409 26.456 13.8214C26.6365 14.002 26.7379 14.2468 26.7379 14.5021V20.2774ZM14.2247 12.577C13.7141 12.577 13.2244 12.7798 12.8634 13.1408C12.5024 13.5018 12.2996 13.9915 12.2996 14.5021V20.2774C12.2996 20.788 12.5024 21.2776 12.8634 21.6387C13.2244 21.9997 13.7141 22.2025 14.2247 22.2025H25.7753C26.2859 22.2025 26.7756 21.9997 27.1366 21.6387C27.4976 21.2776 27.7004 20.788 27.7004 20.2774V14.5021C27.7004 13.9915 27.4976 13.5018 27.1366 13.1408C26.7756 12.7798 26.2859 12.577 25.7753 12.577H24.6472C24.1367 12.5769 23.6471 12.374 23.2862 12.0129L22.4892 11.2159C22.1282 10.8549 21.6386 10.652 21.1281 10.6519H18.8719C18.3614 10.652 17.8718 10.8549 17.5108 11.2159L16.7138 12.0129C16.3529 12.374 15.8633 12.5769 15.3528 12.577H14.2247Z" fill="white"/>
<path d="M20 19.3149C19.3618 19.3149 18.7497 19.0614 18.2984 18.6101C17.8471 18.1588 17.5936 17.5467 17.5936 16.9085C17.5936 16.2703 17.8471 15.6582 18.2984 15.2069C18.7497 14.7556 19.3618 14.5021 20 14.5021C20.6382 14.5021 21.2503 14.7556 21.7016 15.2069C22.1529 15.6582 22.4064 16.2703 22.4064 16.9085C22.4064 17.5467 22.1529 18.1588 21.7016 18.6101C21.2503 19.0614 20.6382 19.3149 20 19.3149ZM20 20.2774C20.8935 20.2774 21.7504 19.9225 22.3822 19.2907C23.014 18.6589 23.3689 17.802 23.3689 16.9085C23.3689 16.015 23.014 15.1581 22.3822 14.5263C21.7504 13.8945 20.8935 13.5396 20 13.5396C19.1065 13.5396 18.2496 13.8945 17.6178 14.5263C16.986 15.1581 16.6311 16.015 16.6311 16.9085C16.6311 17.802 16.986 18.6589 17.6178 19.2907C18.2496 19.9225 19.1065 20.2774 20 20.2774V20.2774ZM15.1872 14.9834C15.1872 15.111 15.1365 15.2334 15.0463 15.3237C14.956 15.414 14.8336 15.4647 14.7059 15.4647C14.5783 15.4647 14.4559 15.414 14.3656 15.3237C14.2754 15.2334 14.2247 15.111 14.2247 14.9834C14.2247 14.8557 14.2754 14.7333 14.3656 14.6431C14.4559 14.5528 14.5783 14.5021 14.7059 14.5021C14.8336 14.5021 14.956 14.5528 15.0463 14.6431C15.1365 14.7333 15.1872 14.8557 15.1872 14.9834V14.9834Z" fill="white"/>
</g>
<defs>
<filter id="filter0_d_13_902" x="0.951557" y="0.621094" width="38.0969" height="38.0969" filterUnits="userSpaceOnUse" color-interpolation-filters="sRGB">
<feFlood flood-opacity="0" result="BackgroundImageFix"/>
<feColorMatrix in="SourceAlpha" type="matrix" values="0 0 0 0 0 0 0 0 0 0 0 0 0 0 0 0 0 0 127 0" result="hardAlpha"/>
<feOffset dy="3.24229"/>
<feGaussianBlur stdDeviation="1.62115"/>
<feComposite in2="hardAlpha" operator="out"/>
<feColorMatrix type="matrix" values="0 0 0 0 0 0 0 0 0 0 0 0 0 0 0 0 0 0 0.13 0"/>
<feBlend mode="normal" in2="BackgroundImageFix" result="effect1_dropShadow_13_902"/>
<feBlend mode="normal" in="SourceGraphic" in2="effect1_dropShadow_13_902" result="shape"/>
</filter>
<linearGradient id="paint0_linear_13_902" x1="20" y1="0.621094" x2="20" y2="32.2334" gradientUnits="userSpaceOnUse">
<stop stop-color="#800165"/>
<stop offset="1" stop-color="#D3014E"/>
</linearGradient>
<clipPath id="clip0_13_902">
<rect width="15.4009" height="15.4009" fill="white" transform="translate(12.2996 8.72705)"/>
</clipPath>
</defs>
</svg>
