<svg width="23" height="19" viewBox="0 0 23 19" fill="none" xmlns="http://www.w3.org/2000/svg">
<path d="M9.6325 1.25124C10.2008 0.924892 10.8447 0.753159 11.5 0.753159C12.1553 0.753159 12.7992 0.924892 13.3675 1.25124L22.4363 6.45874C22.5315 6.51352 22.6107 6.59245 22.6658 6.68759C22.7208 6.78273 22.7498 6.8907 22.7498 7.00062C22.7498 7.11054 22.7208 7.21851 22.6658 7.31365C22.6107 7.40878 22.5315 7.48772 22.4363 7.54249L19 9.51499V15.125C19.0001 15.2071 18.9841 15.2885 18.9528 15.3644C18.9215 15.4403 18.8755 15.5093 18.8175 15.5675L18.815 15.5687L18.8125 15.5725L18.8038 15.58L18.775 15.6075L18.675 15.7C18.5875 15.7762 18.4625 15.8837 18.2987 16.01C17.8498 16.3547 17.3727 16.6612 16.8725 16.9262C15.2182 17.8038 13.3726 18.2589 11.5 18.2512C9.62735 18.2589 7.78182 17.8038 6.1275 16.9262C5.62774 16.6612 5.15107 16.3547 4.7025 16.01C4.53766 15.8827 4.37834 15.7484 4.225 15.6075C4.15628 15.5469 4.10083 15.4728 4.06211 15.3897C4.02339 15.3067 4.00225 15.2166 4 15.125V9.51499L1.5 8.08V13.875C1.5 14.0408 1.43415 14.1997 1.31694 14.3169C1.19973 14.4341 1.04076 14.5 0.875 14.5C0.70924 14.5 0.550269 14.4341 0.433058 14.3169C0.315848 14.1997 0.25 14.0408 0.25 13.875V6.99999C0.249918 6.88777 0.280052 6.7776 0.337238 6.68105C0.394424 6.58449 0.476553 6.50511 0.575 6.45124L9.6325 1.25124ZM13.3675 12.7487C12.7992 13.0751 12.1553 13.2468 11.5 13.2468C10.8447 13.2468 10.2008 13.0751 9.6325 12.7487L5.25 10.2325V14.8462C5.70516 15.2198 6.19632 15.5473 6.71625 15.8237C7.81625 16.4112 9.435 17 11.5 17C13.167 17.0085 14.8103 16.6048 16.2837 15.825C16.8038 15.5478 17.295 15.2195 17.75 14.845V10.2325L13.3675 12.7475V12.7487ZM12.745 2.33624C12.3661 2.11868 11.9369 2.00419 11.5 2.00419C11.0631 2.00419 10.6339 2.11868 10.255 2.33624L2.13 6.99999L10.255 11.665C10.6339 11.8826 11.0631 11.9971 11.5 11.9971C11.9369 11.9971 12.3661 11.8826 12.745 11.665L20.87 6.99999L12.745 2.33499V2.33624Z" fill="#002851"/>
</svg>
