<svg width="16" height="17" viewBox="0 0 16 17" fill="none" xmlns="http://www.w3.org/2000/svg">
<path d="M0.878477 16.0068C0.75708 16.0066 0.637054 15.9811 0.526033 15.932C0.415012 15.8829 0.315424 15.8112 0.233602 15.7216C0.150301 15.6326 0.0867365 15.5271 0.0470773 15.4119C0.00741811 15.2967 -0.00743989 15.1744 0.00347734 15.0531L0.217852 12.6958L10.1211 2.79607L13.216 5.89007L3.31535 15.7889L0.958102 16.0033C0.931632 16.0058 0.90506 16.0069 0.878477 16.0068ZM13.8337 5.27144L10.7397 2.17744L12.5956 0.321567C12.6769 0.240213 12.7734 0.175674 12.8796 0.13164C12.9858 0.0876062 13.0997 0.0649414 13.2147 0.0649414C13.3297 0.0649414 13.4435 0.0876062 13.5497 0.13164C13.656 0.175674 13.7525 0.240213 13.8337 0.321567L15.6896 2.17744C15.771 2.25871 15.8355 2.35521 15.8795 2.46143C15.9236 2.56766 15.9462 2.68152 15.9462 2.7965C15.9462 2.91149 15.9236 3.02535 15.8795 3.13158C15.8355 3.2378 15.771 3.3343 15.6896 3.41557L13.8346 5.27057L13.8337 5.27144Z" fill="#C5CCEC"/>
</svg>
