<svg width="7" height="14" viewBox="0 0 7 14" fill="none" xmlns="http://www.w3.org/2000/svg">
<path d="M1.32249 0.583244C1.45944 0.582778 1.59475 0.613002 1.71848 0.671695C1.84221 0.730388 1.95122 0.816059 2.03749 0.922411L6.46499 6.42241C6.59982 6.58643 6.67352 6.79217 6.67352 7.00449C6.67352 7.21682 6.59982 7.42256 6.46499 7.58658L1.88166 13.0866C1.72606 13.2738 1.50248 13.3915 1.26009 13.4138C1.0177 13.4362 0.776357 13.3613 0.589159 13.2057C0.40196 13.0501 0.284238 12.8266 0.26189 12.5842C0.239542 12.3418 0.314398 12.1004 0.469992 11.9132L4.56749 6.99991L0.607493 2.08658C0.4954 1.95202 0.424196 1.78818 0.402307 1.61443C0.380417 1.44067 0.408758 1.26428 0.483976 1.10613C0.559194 0.947982 0.67814 0.814689 0.826741 0.722022C0.975342 0.629357 1.14738 0.581197 1.32249 0.583244Z" fill="white"/>
</svg>
