<svg width="18" height="18" viewBox="0 0 18 18" fill="none" xmlns="http://www.w3.org/2000/svg">
<path d="M16.375 16.0128L13.2372 12.875H3.25C2.78587 12.875 2.34075 12.6906 2.01256 12.3624C1.68437 12.0342 1.5 11.5891 1.5 11.125V3.25C1.5 2.78587 1.68437 2.34075 2.01256 2.01256C2.34075 1.68437 2.78587 1.5 3.25 1.5H14.625C15.0891 1.5 15.5342 1.68437 15.8624 2.01256C16.1906 2.34075 16.375 2.78587 16.375 3.25V16.0128ZM16.375 17.25H17.25V3.25C17.25 2.55381 16.9734 1.88613 16.4812 1.39384C15.9889 0.901562 15.3212 0.625 14.625 0.625H3.25C2.55381 0.625 1.88613 0.901562 1.39384 1.39384C0.901562 1.88613 0.625 2.55381 0.625 3.25V11.125C0.625 11.8212 0.901562 12.4889 1.39384 12.9812C1.88613 13.4734 2.55381 13.75 3.25 13.75H12.875L16.375 17.25ZM13.3125 5.875C12.9644 5.875 12.6306 6.01328 12.3844 6.25942C12.1383 6.50556 12 6.8394 12 7.1875C12 7.5356 12.1383 7.86944 12.3844 8.11558C12.6306 8.36172 12.9644 8.5 13.3125 8.5C13.6606 8.5 13.9944 8.36172 14.2406 8.11558C14.4867 7.86944 14.625 7.5356 14.625 7.1875C14.625 6.8394 14.4867 6.50556 14.2406 6.25942C13.9944 6.01328 13.6606 5.875 13.3125 5.875ZM13.3125 6.75C13.4285 6.75 13.5398 6.79609 13.6219 6.87814C13.7039 6.96019 13.75 7.07147 13.75 7.1875C13.75 7.30353 13.7039 7.41481 13.6219 7.49686C13.5398 7.57891 13.4285 7.625 13.3125 7.625C13.1965 7.625 13.0852 7.57891 13.0031 7.49686C12.9211 7.41481 12.875 7.30353 12.875 7.1875C12.875 7.07147 12.9211 6.96019 13.0031 6.87814C13.0852 6.79609 13.1965 6.75 13.3125 6.75ZM8.9375 5.875C8.5894 5.875 8.25556 6.01328 8.00942 6.25942C7.76328 6.50556 7.625 6.8394 7.625 7.1875C7.625 7.5356 7.76328 7.86944 8.00942 8.11558C8.25556 8.36172 8.5894 8.5 8.9375 8.5C9.2856 8.5 9.61944 8.36172 9.86558 8.11558C10.1117 7.86944 10.25 7.5356 10.25 7.1875C10.25 6.8394 10.1117 6.50556 9.86558 6.25942C9.61944 6.01328 9.2856 5.875 8.9375 5.875ZM8.9375 6.75C9.05353 6.75 9.16481 6.79609 9.24686 6.87814C9.32891 6.96019 9.375 7.07147 9.375 7.1875C9.375 7.30353 9.32891 7.41481 9.24686 7.49686C9.16481 7.57891 9.05353 7.625 8.9375 7.625C8.82147 7.625 8.71019 7.57891 8.62814 7.49686C8.54609 7.41481 8.5 7.30353 8.5 7.1875C8.5 7.07147 8.54609 6.96019 8.62814 6.87814C8.71019 6.79609 8.82147 6.75 8.9375 6.75ZM4.5625 5.875C4.2144 5.875 3.88056 6.01328 3.63442 6.25942C3.38828 6.50556 3.25 6.8394 3.25 7.1875C3.25 7.5356 3.38828 7.86944 3.63442 8.11558C3.88056 8.36172 4.2144 8.5 4.5625 8.5C4.9106 8.5 5.24444 8.36172 5.49058 8.11558C5.73672 7.86944 5.875 7.5356 5.875 7.1875C5.875 6.8394 5.73672 6.50556 5.49058 6.25942C5.24444 6.01328 4.9106 5.875 4.5625 5.875ZM4.5625 6.75C4.67853 6.75 4.78981 6.79609 4.87186 6.87814C4.95391 6.96019 5 7.07147 5 7.1875C5 7.30353 4.95391 7.41481 4.87186 7.49686C4.78981 7.57891 4.67853 7.625 4.5625 7.625C4.44647 7.625 4.33519 7.57891 4.25314 7.49686C4.17109 7.41481 4.125 7.30353 4.125 7.1875C4.125 7.07147 4.17109 6.96019 4.25314 6.87814C4.33519 6.79609 4.44647 6.75 4.5625 6.75Z" fill="#ACB7EB"/>
</svg>
